<?xml version="1.0" encoding="UTF-8"?>
<svg id="Layer_1" data-name="Layer 1" xmlns="http://www.w3.org/2000/svg" viewBox="0 0 661.75 615.82">
  <defs>
    <style>
      .cls-1 {
        fill-rule: evenodd;
      }

      .cls-1, .cls-2 {
        stroke-width: 0px;
      }
    </style>
  </defs>
  <g>
    <path class="cls-1" d="M475.95,467.68c0-23.15-18.77-41.91-41.91-41.91-2.9,0-5.73.29-8.47.86.71-.03,1.43-.05,2.15-.05,26.29,0,47.61,20.85,47.61,46.58,0,.67-.02,1.35-.05,2.01.44-2.43.67-4.93.67-7.48Z"/>
    <path class="cls-1" d="M448.96,411.77c-1.93,2.22-3.91,4.43-5.93,6.61,23.38,4.24,41.12,24.69,41.12,49.3,0,27.68-22.44,50.12-50.12,50.12s-50.12-22.44-50.12-50.12c0-1.73.09-3.43.26-5.11-2.61,1.15-5.26,2.2-7.95,3.17-.02.65-.05,1.29-.05,1.94,0,31.95,25.9,57.86,57.86,57.86s57.86-25.9,57.86-57.86c0-26.79-18.21-49.32-42.93-55.9Z"/>
  </g>
  <g>
    <path class="cls-1" d="M633.54,332.3c0-40.96-33.2-74.16-74.16-74.16-5.13,0-10.14.52-14.98,1.51,1.26-.05,2.53-.09,3.81-.09,46.52,0,84.23,36.89,84.23,82.41,0,1.19-.03,2.38-.08,3.56.77-4.3,1.18-8.72,1.18-13.24Z"/>
    <path class="cls-1" d="M559.39,229.94c-35.71,0-67.15,18.3-85.47,46.02,1.61,6.65,3.03,13.75,4.09,21.07,13.64-31.42,44.94-53.4,81.37-53.4,48.97,0,88.67,39.7,88.67,88.67s-39.7,88.67-88.67,88.67c-39.73,0-73.35-26.13-84.63-62.14-2.02,5.97-4.69,11.62-8.13,16.79,16.32,34.87,51.71,59.04,92.76,59.04,56.53,0,102.36-45.83,102.36-102.36s-45.83-102.36-102.36-102.36Z"/>
  </g>
  <path class="cls-2" d="M545.37,302.5c-10.73-4.13-41.33-.67-46.55,1.88-8.85,4.34-5.11,21.09.9,24.23,5.41,2.81,11.47-2.98,14.48.68,1.77,2.16.77,30.33,5.53,42.57,2.82,7.23,15.95,7.35,18.8-.17,3.64-9.65-6.81-40.88-4.13-44.22,1.69-2.12,4.06.81,11,1.27,9.4.65,10.35-22.26-.04-26.25ZM536.78,367.52c.06,1.25-.65,2.26-1.6,2.37-.06,0-.12.01-.19.02-1.03,0-1.93-1.09-1.98-2.41l-.05-1.29c-.05-1.31.75-2.38,1.79-2.37,1.05,0,1.93,1.09,1.98,2.41l.05,1.27ZM536.08,360.67c-.22.89-.83,1.47-1.52,1.55-.28.03-.56,0-.84-.14-.94-.43-1.49-1.66-1.29-2.83.01-1.03-.64-4.99-.93-5.84-.41-1.25.03-2.63.99-3.08.95-.45,2.07.19,2.48,1.43.32.98,1.6,7,1.12,8.92ZM546.86,308.18c-.31.51-.76.78-1.24.84-.44.05-.91-.08-1.31-.45-.41-.23-1.76-.56-2.47-.48-1.03.12-1.98-.83-2.14-2.15-.16-1.31.54-2.49,1.58-2.61,1.21-.14,3.96.22,5.18,1.47.85.84,1.03,2.34.4,3.37ZM581.99,291.71c-18.66-.54-25.66,29.36-23.77,46.16,1.88,16.55,7.31,37.05,32.11,34.12,19.81-2.33,24.95-19.49,23.46-40.04-1.14-15.94-10.86-39.65-31.8-40.24ZM574.57,364.2c-.09,1.1-.76,1.89-1.59,1.99-.16.02-.32,0-.49-.04-1.95-.41-5.84-4.51-6.4-6.75-.33-1.29.21-2.6,1.2-2.94.96-.32,1.99.37,2.35,1.56.42.85,2.53,3.12,3.29,3.42,1.03.25,1.75,1.46,1.64,2.75ZM586.67,348.88c-5.29.63-8.02-6.54-8.88-14.04-.62-5.45.34-14.5,5.44-15.05,5.66-.62,7.98,7.18,8.75,13.68,1.1,9.26.09,14.77-5.31,15.41ZM597.54,309.96c-1.1-2.24-5.11-5.1-6.51-5.24-1.04-.1-1.87-1.24-1.85-2.58.02-1.32.88-2.3,1.92-2.2,2.68.25,7.83,4.01,9.61,7.63.58,1.15.33,2.63-.55,3.28-.23.18-.48.26-.75.29-.71.08-1.46-.35-1.86-1.19ZM604.26,316.66c-.24.18-.5.28-.76.32-.71.08-1.44-.35-1.86-1.19-.19-.37-.52-.93-.68-1.1-.8-.9-.92-2.41-.26-3.39.67-.96,1.87-1.03,2.67-.13.68.76,1.31,1.99,1.43,2.23.58,1.13.32,2.61-.54,3.26Z"/>
  <g>
    <path class="cls-1" d="M566.52,181.8c0-41.81-33.89-75.7-75.7-75.7-5.24,0-10.35.53-15.29,1.55,1.29-.06,2.58-.09,3.89-.09,47.49,0,85.98,37.66,85.98,84.12,0,1.22-.03,2.43-.08,3.64.79-4.39,1.2-8.9,1.2-13.51Z"/>
    <path class="cls-1" d="M490.82,77.31c-52.49,0-95.94,38.71-103.36,89.15,4.49,1.96,9.23,3.63,13.35,5.77,4.78-45.49,43.25-80.94,90.01-80.94,49.99,0,90.51,40.52,90.51,90.51,0,19.73-6.32,37.99-17.04,52.86,5.49-.1,10.93.06,16.07,1.01,9.49-15.73,14.95-34.16,14.95-53.87,0-57.71-46.78-104.49-104.49-104.49Z"/>
  </g>
  <path class="cls-1" d="M314.43,144.35c-94.78,0-171.61,76.83-171.61,171.61s76.83,171.61,171.61,171.61,171.61-76.83,171.61-171.61-76.83-171.61-171.61-171.61ZM314.43,472.44c-86.42,0-156.47-70.05-156.47-156.47s70.05-156.47,156.47-156.47,156.47,70.05,156.47,156.47-70.05,156.47-156.47,156.47Z"/>
  <path class="cls-2" d="M214.04,303.79c-.05-1.12-.12-2.13-.17-2.99-.19-2.23,1.06-4.16,2.8-4.37.05,0,.1-.01.18-.02,1.83-.08,3.44,1.71,3.64,4.03.06.92.12,2.07.18,3.29.12,2.33.36,7.17.85,8.5,1.03,1.93.74,4.48-.72,5.74-1.46,1.26-3.54.75-4.65-1.2-1.5-2.6-1.82-6.83-2.11-12.98ZM213.01,286.39c1.8-2.76,5.37-1.99,5.82,2.29.15,1.67.18,4.61-1.47,5.56-1.63.92-3.63-.03-4.49-2.18-.74-1.9-.68-4.42.13-5.67ZM299.67,374.34c1.18-4.24.79-10.81.53-12.99-.25-2.32.99-4.35,2.8-4.57h.03c1.82-.22,3.5,1.5,3.77,3.82.05.39,1.13,9.95-.84,16.96-.6,2.15-2.5,3.17-4.24,2.26-1.74-.88-2.65-3.36-2.05-5.48ZM219.42,353.71c4.6,11.46,21.64,24.15,41.45,16.64,11.67-4.39,14.4-10.41,15.09-10.72.96-.41.58,7.93,2.52,18.58,3.61,19.74,28.54,16.25,30.99-1.1,3.53-25.09-4.37-91.01-11.06-111.48-4.98-15.28-35.03-10.03-33.26,7.32,1.19,11.76,7.43,47.93,5.58,52.88-2.25,5.99-12.71,16.36-18.7,4.6-4.32-8.45-2.83-37.59-6.74-53.3-4.72-19.02-32.82-19.35-35.63,0-2.26,15.48,3.44,60.87,9.77,76.58ZM330.91,373.28c.78,1.3,1.99,1.95,3.14,1.81.54-.06,1.08-.29,1.52-.71,1.43-1.29,1.72-3.84.69-5.74-.65-1.51-1.78-7.53-1.69-9.02.12-2.3-1.28-4.44-3.1-4.72-1.82-.28-3.4,1.3-3.54,3.59-.21,3.27,1.47,12.19,2.98,14.79ZM395.62,257.14c.61,1.45,2.3,8.26,2.41,10.06-.16,2.14.96,4.18,2.66,4.74.38.12.77.17,1.16.13,1.36-.16,2.48-1.39,2.77-3.14.57-3.51-2.47-13.83-3.19-15.49-.89-2.08-2.92-2.96-4.54-1.94-1.59,1.02-2.17,3.53-1.27,5.64ZM400.21,281.62c.27,2.32,1.96,4.03,3.77,3.82,1.84-.22,3.07-2.28,2.8-4.6l-.27-2.25c-.27-2.32-1.95-4-3.79-3.78-1.82.22-3.05,2.25-2.78,4.56l.27,2.25ZM316.42,261.97c1.79-12.22,28.18-15.84,33.73-2.88,5.39,12.65,7.4,48.13,10.37,46.52,2.71-1.41,8.01-33.85,11.07-49.36,2.59-13.17,27.76-16.03,32.5-5.84,11.99,25.89,18.33,94.55,14.68,115.15-2.79,15.61-33.35,18.11-35.71.87-1.6-11.71-.75-22.23-3.47-23.79-1.7-.99-6.78,13.47-11.39,28.1-5.11,16.35-33.17,22.69-39.55,4.99-5.31-14.78-14.71-97.03-12.23-113.76Z"/>
  <g>
    <path class="cls-1" d="M104.49,290.39c-5.24,0-10.35.53-15.29,1.55,1.29-.06,2.58-.09,3.89-.09,21.54,0,41.21,7.77,56.3,20.57.16-2.23.4-4.48.73-6.72-12.69-9.6-28.49-15.3-45.63-15.3Z"/>
    <path class="cls-1" d="M178.97,417.52c-16.33,23.61-43.6,39.07-74.48,39.07-49.99,0-90.51-40.52-90.51-90.51s40.52-90.51,90.51-90.51c18.33,0,35.38,5.45,49.63,14.82.66-4.95,1.52-9.9,2.58-14.83-15.36-8.88-33.19-13.96-52.21-13.96-57.71,0-104.49,46.78-104.49,104.49s46.78,104.49,104.49,104.49c34.15,0,64.48-16.39,83.54-41.73-3.58-3.07-6.63-7.08-9.07-11.32Z"/>
  </g>
  <path class="cls-2" d="M152.35,348.63c-.27.2-.55.32-.85.35-.79.09-1.61-.4-2.08-1.33-.21-.41-.58-1.04-.75-1.23-.89-1.01-1.03-2.69-.28-3.78.74-1.07,2.08-1.15,2.98-.14.76.85,1.46,2.22,1.6,2.5.64,1.27.36,2.91-.6,3.64ZM144.85,341.15c-1.23-2.5-5.71-5.7-7.27-5.85-1.16-.11-2.09-1.39-2.07-2.88.02-1.47.98-2.57,2.14-2.46,2.99.27,8.74,4.48,10.73,8.52.65,1.29.37,2.93-.62,3.66-.26.2-.54.29-.83.33-.79.09-1.63-.39-2.08-1.33ZM132.7,384.62c-5.9.7-8.96-7.3-9.92-15.68-.69-6.08.38-16.19,6.08-16.81,6.32-.69,8.91,8.02,9.77,15.28,1.23,10.34.1,16.49-5.93,17.21ZM119.19,401.72c-.1,1.23-.85,2.11-1.78,2.22-.18.02-.36,0-.55-.04-2.18-.45-6.52-5.04-7.15-7.54-.37-1.45.23-2.9,1.34-3.28,1.08-.36,2.22.41,2.62,1.74.47.95,2.83,3.48,3.68,3.82,1.15.28,1.95,1.63,1.83,3.08ZM127.48,320.77c-20.85-.61-28.66,32.79-26.54,51.56,2.1,18.48,8.17,41.37,35.86,38.11,22.13-2.61,27.86-21.76,26.2-44.72-1.27-17.8-12.13-44.28-35.52-44.94ZM63.96,409.52c-.08,1.25-.84,2.2-1.8,2.31-.15.02-.31.02-.48-.03-5.3-.88-9.58-4.53-11.31-7.55-.72-1.21-.54-2.89.4-3.72.92-.82,2.26-.5,2.97.74.94,1.65,4.03,4.53,8.27,5.23,1.16.2,2.03,1.54,1.95,3.02ZM71.44,328.26h.02c2.95-.35,9.1,2.57,11.6,6.17.79,1.14.75,2.83-.11,3.77-.32.35-.71.55-1.11.59-.67.08-1.38-.26-1.88-.97-1.53-2.19-6.31-4.41-7.87-4.23h-.02c-1.14.14-2.22-.95-2.39-2.42-.19-1.47.61-2.78,1.76-2.91ZM86.5,337.78c.87.67,1.74,1.89,1.9,2.12.79,1.12.75,2.83-.11,3.77-.32.35-.71.55-1.11.59-.67.08-1.38-.24-1.87-.95-.26-.37-.7-.9-.9-1.05-1-.82-1.36-2.48-.79-3.7.59-1.24,1.88-1.61,2.88-.78ZM87.69,385.64c-14.93,9.03-24.84,6.18-27.33-11.35-1.51-10.64,3.73-18.04,8.49-19.09,3.53-.77,5.45,3.34,6.25,5.28,3.82,9.03,21.48-.39,17.6-15.24-3.07-11.76-13.9-21.94-30.82-19.39-22.07,3.35-27.86,28.94-27.21,43.2,1.33,28.64,14.55,48.59,37.54,47.47,9.76-.47,19.41-3.48,23.46-8.09,7.49-8.44-.5-27.33-7.99-22.79Z"/>
  <path class="cls-2" d="M519.88,195.35c-16.84,10.18-28.01,6.97-30.82-12.8-1.7-12,4.21-20.34,9.57-21.52,3.98-.87,6.14,3.76,7.05,5.95,4.31,10.18,24.23-.44,19.85-17.18-3.47-13.26-15.68-24.74-34.76-21.87-24.89,3.78-31.42,32.63-30.68,48.72,1.5,32.29,16.41,54.79,42.34,53.53,11.01-.53,21.88-3.92,26.46-9.12,8.44-9.52-.56-30.82-9-25.7ZM518.54,141.38c.98.76,1.96,2.13,2.14,2.39.89,1.27.84,3.19-.13,4.25-.36.4-.8.62-1.26.67-.75.09-1.55-.26-2.11-1.07-.29-.41-.79-1.02-1.01-1.18-1.13-.93-1.54-2.8-.89-4.18.67-1.4,2.12-1.81,3.25-.88ZM501.55,130.64h.02c3.33-.4,10.27,2.89,13.09,6.96.89,1.29.84,3.19-.13,4.25-.36.4-.8.62-1.26.67-.75.09-1.56-.29-2.11-1.1-1.72-2.47-7.12-4.97-8.87-4.76h-.02c-1.28.15-2.5-1.07-2.7-2.73-.21-1.65.69-3.13,1.98-3.29ZM493.13,222.27c-.09,1.41-.95,2.48-2.03,2.61-.16.02-.35.02-.54-.03-5.98-.99-10.81-5.1-12.75-8.51-.81-1.37-.61-3.26.45-4.19,1.04-.93,2.55-.56,3.34.83,1.06,1.86,4.54,5.11,9.32,5.89,1.31.22,2.28,1.74,2.2,3.4Z"/>
  <g>
    <path class="cls-1" d="M225.23,548.79c0-23.15-18.77-41.91-41.91-41.91-2.9,0-5.73.29-8.47.86.71-.03,1.43-.05,2.15-.05,26.29,0,47.61,20.85,47.61,46.58,0,.67-.02,1.35-.05,2.01.44-2.43.67-4.93.67-7.48Z"/>
    <path class="cls-1" d="M183.32,490.93c-31.95,0-57.86,25.9-57.86,57.86s25.9,57.86,57.86,57.86,57.86-25.9,57.86-57.86-25.9-57.86-57.86-57.86ZM183.32,598.91c-27.68,0-50.12-22.44-50.12-50.12s22.44-50.12,50.12-50.12,50.12,22.44,50.12,50.12-22.44,50.12-50.12,50.12Z"/>
  </g>
  <g>
    <path class="cls-1" d="M332.73,575.83c0-16-12.97-28.97-28.97-28.97-2.01,0-3.96.2-5.85.59.49-.02.99-.03,1.49-.03,18.17,0,32.91,14.41,32.91,32.19,0,.47-.01.93-.03,1.39.3-1.68.46-3.41.46-5.17Z"/>
    <path class="cls-1" d="M303.76,535.84c-22.09,0-39.99,17.9-39.99,39.99s17.9,39.99,39.99,39.99,39.99-17.9,39.99-39.99-17.9-39.99-39.99-39.99ZM303.76,610.47c-19.13,0-34.64-15.51-34.64-34.64s15.51-34.64,34.64-34.64,34.64,15.51,34.64,34.64-15.51,34.64-34.64,34.64Z"/>
  </g>
  <g>
    <path class="cls-1" d="M253.77,98.98c0-23.15-18.77-41.91-41.91-41.91-2.9,0-5.73.29-8.47.86.71-.03,1.43-.05,2.15-.05,26.29,0,47.61,20.85,47.61,46.58,0,.67-.02,1.35-.05,2.01.44-2.43.67-4.93.67-7.48Z"/>
    <path class="cls-1" d="M211.86,41.12c-31.95,0-57.86,25.9-57.86,57.86s25.9,57.86,57.86,57.86,57.86-25.9,57.86-57.86-25.9-57.86-57.86-57.86ZM211.86,149.1c-27.68,0-50.12-22.44-50.12-50.12s22.44-50.12,50.12-50.12,50.12,22.44,50.12,50.12-22.44,50.12-50.12,50.12Z"/>
  </g>
  <g>
    <path class="cls-1" d="M352.39,39.99c0-16-12.97-28.97-28.97-28.97-2.01,0-3.96.2-5.85.59.49-.02.99-.03,1.49-.03,18.17,0,32.91,14.41,32.91,32.19,0,.47-.01.93-.03,1.39.3-1.68.46-3.41.46-5.17Z"/>
    <path class="cls-1" d="M323.42,0c-22.09,0-39.99,17.9-39.99,39.99s17.9,39.99,39.99,39.99,39.99-17.9,39.99-39.99S345.51,0,323.42,0ZM323.42,74.63c-19.13,0-34.64-15.51-34.64-34.64s15.51-34.64,34.64-34.64,34.64,15.51,34.64,34.64-15.51,34.64-34.64,34.64Z"/>
  </g>
</svg>