<?xml version="1.0" encoding="utf-8"?>
<!-- Generator: Adobe Illustrator 28.2.0, SVG Export Plug-In . SVG Version: 6.00 Build 0)  -->
<svg version="1.1" id="Layer_1" xmlns="http://www.w3.org/2000/svg" xmlns:xlink="http://www.w3.org/1999/xlink" x="0px" y="0px"
	 viewBox="0 0 50 50" style="enable-background:new 0 0 50 50;" xml:space="preserve">
<style type="text/css">
	.st0{fill:none;stroke:#000000;stroke-width:4;stroke-miterlimit:10;}
</style>
<path class="st0" d="M33.9,30.8l-1.1,1.1c0,0-2.7,2.7-10.1-4.7c-7.4-7.3-4.7-10.1-4.7-10.1l0.7-0.7c1.7-1.7,1.9-4.6,0.4-6.6
	l-3.1-4.2C14,3.2,10.4,2.8,8.2,5L4.3,8.9c-1.1,1.1-1.8,2.5-1.7,4c0.3,4,2,12.5,12.1,22.4c10.6,10.5,20.6,11,24.6,10.6
	c1.3-0.1,2.4-0.7,3.3-1.6l3.6-3.6c2.4-2.4,1.7-6.5-1.4-8.1L39.9,30C37.9,28.9,35.4,29.3,33.9,30.8z"/>
</svg>
