<?xml version="1.0" encoding="utf-8"?>
<!-- Generator: Adobe Illustrator 27.0.0, SVG Export Plug-In . SVG Version: 6.00 Build 0)  -->
<svg version="1.1" id="Layer_1" xmlns="http://www.w3.org/2000/svg" xmlns:xlink="http://www.w3.org/1999/xlink" x="0px" y="0px"
	 viewBox="0 0 50 50" style="enable-background:new 0 0 50 50;" xml:space="preserve">
<path class="phone-svg" d="M34.7,30.9l-1.2,1.2c0,0-3,2.9-11-5.1c-8.1-8-5.1-11-5.1-11l0.8-0.8c1.9-1.9,2.1-5,0.4-7.2l-3.4-4.6
	C13,0.7,9,0.3,6.6,2.7L2.3,6.9c-1.2,1.2-2,2.7-1.9,4.4C0.7,15.7,2.6,25,13.6,35.8c11.6,11.5,22.5,12,26.9,11.6
	c1.4-0.1,2.6-0.8,3.6-1.8l3.9-3.9c2.6-2.6,1.9-7.1-1.5-8.9L41.3,30C39.1,28.8,36.4,29.2,34.7,30.9z"/>
</svg>
