<?xml version="1.0" encoding="utf-8"?>
<!-- Generator: Adobe Illustrator 28.2.0, SVG Export Plug-In . SVG Version: 6.00 Build 0)  -->
<svg version="1.1" id="Layer_1" xmlns="http://www.w3.org/2000/svg" xmlns:xlink="http://www.w3.org/1999/xlink" x="0px" y="0px"
	 viewBox="0 0 810 684" style="enable-background:new 0 0 810 684;" xml:space="preserve">
<style type="text/css">
	.st0{fill:none;stroke:#000000;stroke-width:50;stroke-miterlimit:16.6667;}
</style>
<path class="st0" d="M77,303.3c0,0,330.5-135.2,445.1-182.8c43.9-19,193-80,193-80s68.8-26.7,63,38.1c-1.9,26.7-17.2,120-32.5,220.9
	c-22.9,142.8-47.8,299-47.8,299s-3.8,43.8-36.3,51.4c-32.5,7.6-86-26.7-95.5-34.3c-7.6-5.7-143.3-91.4-192.9-133.3
	c-13.4-11.4-28.7-34.3,1.9-60.9c68.8-62.8,150.9-140.9,200.6-190.5c22.9-22.9,45.9-76.2-49.7-11.4
	c-135.6,93.3-269.4,180.9-269.4,180.9s-30.6,19-87.9,1.9c-57.3-17.1-124.2-40-124.2-40S-1.3,333.7,77,303.3L77,303.3z"/>
</svg>
