<?xml version="1.0" encoding="utf-8"?>
<!-- Generator: Adobe Illustrator 28.2.0, SVG Export Plug-In . SVG Version: 6.00 Build 0)  -->
<svg version="1.1" id="Layer_1" xmlns="http://www.w3.org/2000/svg" xmlns:xlink="http://www.w3.org/1999/xlink" x="0px" y="0px"
	 viewBox="0 0 1134 687" style="enable-background:new 0 0 1134 687;" xml:space="preserve">
<style type="text/css">
	.st0{fill:none;stroke:#000000;stroke-width:60;stroke-miterlimit:10;}
</style>
<path class="st0" d="M677.5,330.6c-19.5-7.3-19.5-35.2-20.7-54.6c-4.8-69.3,19.5-175.1-9.7-220.1c-20.7-26.8-120.5-24.3-181.2-20.7
	c-17.1,2.5-37.7,6.1-52.3,13.4C399,55.9,384.4,68,384.4,78.9c0,15.9,36.4,13.4,49.8,34.1c14.6,21.9,14.6,69.3,14.6,108.2
	c0,45-7.3,104.6-25.5,107.1c-28,1.2-43.7-26.8-58.4-47.5c-29.3-40.2-58.4-90-80.3-138.7c-10.9-25.5-17-53.5-32.8-64.4
	c-24.3-17-68.2-18.2-110.7-17C102.2,62,46.3,57.1,35.2,80.2c-8.6,25.5,9.8,49.8,19.5,70.5c49.8,108.2,103.4,203.1,169,293.1
	c60.9,83.9,118,150.8,229.9,186c31.6,9.7,170.3,37.7,198.2,0c9.7-14.6,7.3-47.5,12.1-71.8s10.9-48.6,34.1-49.8
	c19.5-1.2,30.4,15.7,42.5,28c13.4,13.4,24.3,24.3,34.1,36.6c23.2,23,47.5,54.6,76.6,66.9c40.2,17,102.1,12.1,160.5,9.7
	c47.5-1.2,81.4-10.9,85.1-38.9c2.5-21.9-21.9-53.5-36.6-71.8c-36.6-45-53.5-58.4-95-99.8c-18.2-18.2-41.4-37.7-41.4-59.6
	c-1.2-13.4,9.7-25.5,19.5-38.9c42.5-63.2,85.1-108.2,124.1-173.9c10.9-19.5,36.6-64.4,26.8-86.4c-10.9-24.3-71.8-17-109.4-17
	c-48.6,0-111.9-3.6-124.1,6.1c-23.2,15.9-32.8,41.4-43.7,65.7c-24.3,55.9-57.1,113-91.2,155.7C713.9,304.9,690.7,335.4,677.5,330.6
	L677.5,330.6z"/>
</svg>
