<?xml version="1.0" encoding="utf-8"?>
<!-- Generator: Adobe Illustrator 28.2.0, SVG Export Plug-In . SVG Version: 6.00 Build 0)  -->
<svg version="1.1" id="Layer_1" xmlns="http://www.w3.org/2000/svg" xmlns:xlink="http://www.w3.org/1999/xlink" x="0px" y="0px"
	 viewBox="0 0 765.9 762" style="enable-background:new 0 0 765.9 762;" xml:space="preserve">
<path d="M556,455.5c-9.5-4.5-55-27-63.5-30.5c-8.5-3.5-14.5-4.5-21,5s-24,30-29.5,36.5c-5.5,6.5-10.5,7-20,0
	c-27.3-11-52.5-26.5-74.5-46c-19.9-18.8-36.8-40.5-50-64.5c-5.5-9,0-14,4-19c4-5,9-10.5,14-16c3.7-4.8,6.7-10,9-15.5
	c2.5-5.2,2.5-11.3,0-16.5c0-4.5-21-50-29-68.5s-15-16-20.5-16h-20c-9.5,0.4-18.5,4.5-25,11.5c-21.1,20.2-32.9,48.3-32.5,77.5
	c2.6,35.5,15.6,69.4,37.5,97.5c40.2,59.7,95.1,107.9,159.5,140c22,9.5,39,15,52.5,19.5c19,5.7,39,6.9,58.5,3.5
	c26.2-5.3,49-21.2,63-44c5.8-13.9,7.7-29.1,5.5-44C571.5,462.5,565.5,460,556,455.5z"/>
<path d="M649.5,115C579.6,44.5,484.3,5.2,385,6C179.6,7.1,13.9,174.5,15,379.9c0.3,64.4,17.4,127.7,49.5,183.6L14.5,756l197-50
	C266,735.6,327,751.1,389,751h-4c205.4,1.3,373.1-164.1,374.4-369.6C760.1,281.5,720.5,185.4,649.5,115L649.5,115z M385,687
	c-55.5,0-109.9-15-157.5-43.5l-11-6.5l-117,30.5l31-114l-7-11.5C33.5,397,78,206.5,223,116.5c121.5-75.4,278.9-57.7,380.5,43
	C661.7,217.3,694.3,296,694,378C693.7,548.5,555.5,686.7,385,687z"/>
</svg>
